<?xml version="1.0" encoding="utf-8"?>
<!-- Generated by IcoMoon.io -->
<!DOCTYPE svg PUBLIC "-//W3C//DTD SVG 1.1//EN" "http://www.w3.org/Graphics/SVG/1.1/DTD/svg11.dtd">
<svg version="1.1" xmlns="http://www.w3.org/2000/svg" xmlns:xlink="http://www.w3.org/1999/xlink" width="48" height="48" viewBox="0 0 48 48">
<path d="M14.688 35.319c0.771 2.109 3.080 3.199 5.17 2.43l10.091-3.469 1.43 5.969c0.309 1.439 2.359 2.75 3.868 2.75h5.75c1.1 0 2 0.9 2 2.001v0.5c0 1.381 1.121 2.5 2.5 2.5 1.381 0 2.5-1.119 2.5-2.5v-10.001c0-1.379-1.119-2.5-2.5-2.5-1.379 0-2.5 1.121-2.5 2.5v0.5c0 1.1-0.9 2-2 2h-3c-1.1 0-1.73-0.93-2-2l-0.891-3.49 10.24-3.521c2.090-0.77 3.17-3.109 2.41-5.23l-7.58-21.081c-0.76-2.11-3.070-3.201-5.16-2.43l-25.488 8.76c-2.089 0.771-3.169 3.11-2.408 5.231l1.72 4.79-3.779 1.39-0.181-0.48c-0.47-1.32-1.92-2-3.22-1.52-1.311 0.48-1.98 1.94-1.51 3.271l4.48 12.451c0.47 1.33 1.92 2.010 3.229 1.529 1.301-0.49 1.979-1.949 1.499-3.27l-0.358-0.9 1.499-0.841 1.84-0.471 2.349 5.132zM31.998 8.498c0-1.38 1.121-2.5 2.499-2.5 1.381 0 2.5 1.121 2.5 2.5s-1.119 2.5-2.5 2.5c-1.378 0-2.499-1.121-2.499-2.5z" fill="#000000"></path>
</svg>
